<svg width="23" height="14" viewBox="0 0 23 14" fill="none" xmlns="http://www.w3.org/2000/svg">
<path d="M22.2198 0.911634C22.2185 0.90995 22.2171 0.908215 22.2157 0.906439C22.2088 0.898166 22.1997 0.888146 22.1879 0.877775L22.1749 0.866289L22.1719 0.864265C22.1252 0.824041 22.0739 0.792633 22.0219 0.768646C22.0168 0.765915 22.0103 0.762611 22.0029 0.75936L22.003 0.759226L21.995 0.756033C21.9274 0.728847 21.8576 0.715455 21.7901 0.711868L21.7901 0.711517H21.7848L21.7834 0.711408C21.7812 0.71126 21.7784 0.711098 21.7752 0.71097L21.7723 0.710723C21.767 0.710341 21.7598 0.709961 21.7513 0.709961H1.36696C1.35845 0.709961 1.35124 0.710341 1.34592 0.710722L1.34279 0.710992C1.33867 0.711167 1.33531 0.711398 1.33297 0.711575L1.32921 0.711907C1.26054 0.715582 1.19218 0.729742 1.12802 0.754902C1.12671 0.755395 1.12543 0.755886 1.12418 0.756374L1.12411 0.756394L1.12395 0.756464C1.11841 0.758646 1.11358 0.76076 1.10955 0.762627L1.10821 0.763281C1.05117 0.788178 0.996206 0.821241 0.946298 0.8643L0.94326 0.866316L0.93028 0.877797C0.916163 0.890286 0.905526 0.902468 0.897924 0.912192C0.85546 0.958719 0.820092 1.01211 0.794339 1.07159L0.794072 1.07147L0.789819 1.08276C0.786681 1.09109 0.784309 1.09854 0.78323 1.10201L22.2198 0.911634ZM22.2198 0.911634C22.2598 0.955235 22.2948 1.00588 22.321 1.06488C22.3253 1.07386 22.3284 1.08141 22.3303 1.08654L22.3317 1.08953L22.3351 1.09901C22.3527 1.14803 22.3691 1.21104 22.3691 1.28379V12.7992C22.3691 12.87 22.3536 12.932 22.3358 12.9812C22.3355 12.9823 22.3351 12.9833 22.3349 12.9841C22.3327 12.9906 22.3283 13.0035 22.3207 13.0193C22.2954 13.0758 22.2609 13.1274 22.2188 13.1727C22.2178 13.174 22.2167 13.1752 22.2156 13.1766C22.2088 13.1848 22.1996 13.1949 22.1879 13.2052C22.1836 13.2091 22.1796 13.2124 22.1763 13.2149C22.1592 13.2301 22.1426 13.2425 22.1294 13.2519C22.1223 13.2573 22.1107 13.2661 22.098 13.2745L22.087 13.2818L22.0868 13.2815C22.0603 13.2972 22.0286 13.3113 22.0219 13.3144L22.0215 13.3146L22.0211 13.3148L22.021 13.3148L22.0177 13.3164C22.0128 13.3189 22 13.3253 21.983 13.3316C21.9102 13.3594 21.8312 13.3738 21.7513 13.3738H1.36608C1.28318 13.3738 1.20517 13.3576 1.1367 13.3324C1.12173 13.327 1.10992 13.3212 1.10223 13.3172L1.10103 13.3165C1.08406 13.309 1.05393 13.2953 1.02434 13.2764M22.2198 0.911634L0.784913 12.9841C0.786265 12.9883 0.789732 12.9987 0.795129 13.0112C0.818335 13.0654 0.849238 13.1127 0.883702 13.1534L0.891053 13.1697L0.931188 13.2052C0.936731 13.2101 0.941878 13.2142 0.946304 13.2176C0.963165 13.2319 0.979693 13.2444 0.994651 13.255C0.995163 13.2554 0.99572 13.2559 0.996315 13.2564L0.996188 13.2565L0.997915 13.2576C0.999086 13.2585 1.00035 13.2595 1.00166 13.2605C1.00682 13.2645 1.01459 13.2702 1.02434 13.2764M21.7815 0.711517L21.7783 0.711258C21.7796 0.71135 21.7808 0.71145 21.7815 0.711517ZM21.7815 0.711517H21.7768C21.7788 0.711517 21.7807 0.711546 21.7823 0.71159L21.7815 0.711517ZM1.02434 13.2764C1.02416 13.2763 1.02398 13.2762 1.02381 13.2761L1.1584 13.0654L1.02487 13.2768C1.02469 13.2767 1.02451 13.2765 1.02434 13.2764ZM3.02105 1.85918L11.5592 8.75767L14.1324 6.67945C14.1403 6.6687 14.1503 6.65657 14.1624 6.64461M3.02105 1.85918L14.3382 6.82236M3.02105 1.85918H20.0972M3.02105 1.85918H20.0972M14.1624 6.64461C14.1625 6.64442 14.1627 6.64424 14.1629 6.64406L14.3382 6.82236M14.1624 6.64461C14.1622 6.64479 14.162 6.64497 14.1618 6.64515L14.3382 6.82236M14.1624 6.64461C14.193 6.61425 14.224 6.59405 14.2449 6.58152C14.2552 6.57534 14.2649 6.56995 14.2715 6.5663M14.3382 6.82236C14.3547 6.80589 14.375 6.79468 14.3953 6.78349C14.4009 6.78039 14.4066 6.7773 14.4121 6.7741M14.2715 6.5663L14.255 6.57964L14.4121 6.7741M14.2715 6.5663L20.0972 1.85918M14.2715 6.5663C14.2716 6.56622 14.2718 6.56614 14.2719 6.56607L14.2867 6.5578L14.4121 6.7741M14.4121 6.7741L20.0972 1.85918M1.09578 0.769482C1.09532 0.769727 1.09623 0.769239 1.09749 0.76859L1.09578 0.769482ZM1.33673 0.711515L1.33672 0.711516C1.33705 0.711486 1.33747 0.71145 1.33795 0.71141L1.33673 0.711515ZM0.961255 13.2282C0.961725 13.2285 0.961241 13.2282 0.960191 13.2275L0.961255 13.2282ZM1.08862 13.3096L1.08976 13.3102C1.08872 13.3096 1.0879 13.3091 1.08862 13.3096ZM22.3337 12.987L22.3344 12.985L22.3337 12.987ZM11.1547 9.95385L11.1548 9.95393C11.2741 10.0502 11.4199 10.0942 11.56 10.0942C11.6995 10.0942 11.8458 10.0505 11.9649 9.95348C11.9651 9.95331 11.9653 9.95313 11.9655 9.95296L14.6191 7.80917L20.095 12.223H3.01142L8.46566 7.78103L11.1547 9.95385ZM21.7922 0.7121L21.79 0.711943L21.7922 0.7121ZM14.1275 6.69005L14.3206 6.84883L14.1106 6.7138C14.1132 6.7095 14.1188 6.70058 14.1275 6.69005ZM1.98392 11.5305V2.54435L7.52261 7.01931L1.98392 11.5305ZM21.1343 2.54438V11.5394L15.5617 7.0471L21.1343 2.54438Z" fill="#1C1912" stroke="#1C1912" stroke-width="0.5"/>
</svg>
