<svg width="221" height="33" viewBox="0 0 221 33" fill="none" xmlns="http://www.w3.org/2000/svg">
<path d="M30.5776 23.432C30.9179 23.432 31.2117 23.5557 31.4592 23.8032C31.7067 24.0507 31.8304 24.3445 31.8304 24.6848V31.2272C31.8304 31.5675 31.7067 31.8613 31.4592 32.1088C31.2117 32.3563 30.9179 32.48 30.5776 32.48H1.2528C0.912533 32.48 0.618667 32.3563 0.3712 32.1088C0.123733 31.8613 0 31.5675 0 31.2272V1.2528C0 0.912534 0.123733 0.618668 0.3712 0.371201C0.618667 0.123734 0.912533 0 1.2528 0H30.1136C30.4539 0 30.7477 0.123734 30.9952 0.371201C31.2427 0.618668 31.3664 0.912534 31.3664 1.2528V7.7952C31.3664 8.13547 31.2427 8.42933 30.9952 8.6768C30.7477 8.92427 30.4539 9.048 30.1136 9.048H12.064V11.9712H27.5616C27.9019 11.9712 28.1957 12.0949 28.4432 12.3424C28.6907 12.5899 28.8144 12.8837 28.8144 13.224V19.256C28.8144 19.5963 28.6907 19.8901 28.4432 20.1376C28.1957 20.3851 27.9019 20.5088 27.5616 20.5088H12.064V23.432H30.5776Z" fill="#1C1912"/>
<path d="M72.1803 0C72.4587 0 72.6907 0.108267 72.8763 0.324801C73.0928 0.510401 73.2011 0.742401 73.2011 1.0208L73.1547 1.3456L62.4827 30.9488C62.328 31.3819 62.0805 31.7531 61.7403 32.0624C61.4 32.3408 60.9515 32.48 60.3947 32.48H49.5835C49.0267 32.48 48.5781 32.3408 48.2379 32.0624C47.8976 31.7531 47.6656 31.4283 47.5419 31.088L36.7771 1.3456L36.7307 1.0208C36.7307 0.742401 36.8235 0.510401 37.0091 0.324801C37.2256 0.108267 37.4731 0 37.7515 0H47.5419C48.0987 0 48.5472 0.170134 48.8875 0.510402C49.2587 0.819735 49.5061 1.16 49.6299 1.5312L54.9659 19.3024L60.3019 1.5312C60.4256 1.12907 60.6576 0.773334 60.9979 0.464C61.3381 0.154667 61.8021 0 62.3899 0H72.1803Z" fill="#1C1912"/>
<path d="M109.421 23.432C109.762 23.432 110.055 23.5557 110.303 23.8032C110.55 24.0507 110.674 24.3445 110.674 24.6848V31.2272C110.674 31.5675 110.55 31.8613 110.303 32.1088C110.055 32.3563 109.762 32.48 109.421 32.48H80.0965C79.7563 32.48 79.4624 32.3563 79.2149 32.1088C78.9675 31.8613 78.8437 31.5675 78.8437 31.2272V1.2528C78.8437 0.912534 78.9675 0.618668 79.2149 0.371201C79.4624 0.123734 79.7563 0 80.0965 0H108.957C109.298 0 109.591 0.123734 109.839 0.371201C110.086 0.618668 110.21 0.912534 110.21 1.2528V7.7952C110.21 8.13547 110.086 8.42933 109.839 8.6768C109.591 8.92427 109.298 9.048 108.957 9.048H90.9077V11.9712H106.405C106.746 11.9712 107.039 12.0949 107.287 12.3424C107.534 12.5899 107.658 12.8837 107.658 13.224V19.256C107.658 19.5963 107.534 19.8901 107.287 20.1376C107.039 20.3851 106.746 20.5088 106.405 20.5088H90.9077V23.432H109.421Z" fill="#1C1912"/>
<path d="M148.936 22.968C149.276 22.968 149.57 23.0917 149.818 23.3392C150.065 23.5867 150.189 23.8805 150.189 24.2208V31.2272C150.189 31.5675 150.065 31.8613 149.818 32.1088C149.57 32.3563 149.276 32.48 148.936 32.48H121.838C121.498 32.48 121.204 32.3563 120.957 32.1088C120.709 31.8613 120.586 31.5675 120.586 31.2272V1.2528C120.586 0.912534 120.709 0.618668 120.957 0.371201C121.204 0.123734 121.498 0 121.838 0H131.861C132.201 0 132.495 0.123734 132.742 0.371201C132.99 0.618668 133.114 0.912534 133.114 1.2528V22.968H148.936Z" fill="#1C1912"/>
<path d="M183.31 0C183.588 0 183.82 0.108267 184.006 0.324801C184.222 0.510401 184.33 0.726934 184.33 0.974401C184.33 1.16 184.284 1.3456 184.191 1.5312L172.498 20.88V31.2272C172.498 31.5675 172.375 31.8613 172.127 32.1088C171.88 32.3563 171.586 32.48 171.246 32.48H161.362C161.022 32.48 160.728 32.3563 160.481 32.1088C160.233 31.8613 160.11 31.5675 160.11 31.2272V20.88L148.463 1.5312C148.37 1.3456 148.324 1.17547 148.324 1.0208C148.324 0.742401 148.417 0.510401 148.602 0.324801C148.819 0.108267 149.066 0 149.345 0H159.135C160.001 0 160.635 0.355733 161.038 1.0672L166.281 10.2544L171.663 1.16C172.127 0.386667 172.777 0 173.612 0H183.31Z" fill="#1C1912"/>
<path d="M218.902 0C219.242 0 219.536 0.123734 219.783 0.371201C220.031 0.618668 220.154 0.912534 220.154 1.2528V31.2272C220.154 31.5675 220.031 31.8613 219.783 32.1088C219.536 32.3563 219.242 32.48 218.902 32.48H211.431C210.689 32.48 210.07 32.1552 209.575 31.5056L199.46 18.6064V31.2272C199.46 31.5675 199.336 31.8613 199.089 32.1088C198.841 32.3563 198.547 32.48 198.207 32.48H189.577C189.237 32.48 188.943 32.3563 188.695 32.1088C188.448 31.8613 188.324 31.5675 188.324 31.2272V1.2528C188.324 0.912534 188.448 0.618668 188.695 0.371201C188.943 0.123734 189.237 0 189.577 0H197.094C197.836 0 198.439 0.309334 198.903 0.928002L209.018 14.8944V1.2528C209.018 0.912534 209.142 0.618668 209.39 0.371201C209.637 0.123734 209.931 0 210.271 0H218.902Z" fill="#1C1912"/>
</svg>
