<svg width="29" height="30" viewBox="0 0 29 30" fill="none" xmlns="http://www.w3.org/2000/svg">
<path d="M27.8586 21.6429C28.1686 21.6429 28.4363 21.7571 28.6618 21.9857C28.8873 22.2143 29 22.4857 29 22.8V28.8429C29 29.1571 28.8873 29.4286 28.6618 29.6571C28.4363 29.8857 28.1686 30 27.8586 30H1.1414C0.83139 30 0.563654 29.8857 0.338192 29.6571C0.112731 29.4286 0 29.1571 0 28.8429V1.15714C0 0.842858 0.112731 0.57143 0.338192 0.342858C0.563654 0.114286 0.83139 0 1.1414 0H27.4359C27.7459 0 28.0136 0.114286 28.2391 0.342858C28.4645 0.57143 28.5773 0.842858 28.5773 1.15714V7.2C28.5773 7.51429 28.4645 7.78572 28.2391 8.01429C28.0136 8.24286 27.7459 8.35715 27.4359 8.35715H10.9913V11.0571H25.1108C25.4208 11.0571 25.6885 11.1714 25.914 11.4C26.1395 11.6286 26.2522 11.9 26.2522 12.2143V17.7857C26.2522 18.1 26.1395 18.3714 25.914 18.6C25.6885 18.8286 25.4208 18.9429 25.1108 18.9429H10.9913V21.6429H27.8586Z" fill="#1C1912"/>
</svg>
