<svg width="21" height="21" viewBox="0 0 21 21" fill="none" xmlns="http://www.w3.org/2000/svg">
<path d="M10.1309 0.47998C4.62486 0.47998 0.142625 4.95836 0.140625 10.4644C0.139625 12.2244 0.600609 13.9425 1.47461 15.4565L0.119141 20.48L5.35156 19.2437C6.81056 20.0397 8.453 20.4575 10.125 20.4585H10.1289C15.6339 20.4585 20.1142 15.9791 20.1172 10.4741C20.1192 7.80512 19.0813 5.29571 17.1953 3.40771C15.3093 1.52071 12.8029 0.48098 10.1309 0.47998ZM10.1289 2.47998C12.2649 2.48098 14.2723 3.31378 15.7812 4.82178C17.2903 6.33178 18.1192 8.33817 18.1172 10.4722C18.1152 14.8762 14.533 18.4585 10.127 18.4585C8.79395 18.4575 7.47355 18.1228 6.31055 17.4878L5.63672 17.1206L4.89258 17.2964L2.92383 17.7612L3.4043 15.9761L3.62109 15.1753L3.20703 14.4565C2.50903 13.2485 2.13963 11.8674 2.14062 10.4644C2.14263 6.06236 5.72591 2.47998 10.1289 2.47998ZM6.5957 5.85498C6.4287 5.85498 6.15869 5.91748 5.92969 6.16748C5.70069 6.41648 5.05469 7.01956 5.05469 8.24756C5.05469 9.47556 5.94922 10.6626 6.07422 10.8296C6.19822 10.9956 7.80089 13.5952 10.3379 14.5952C12.4459 15.4262 12.874 15.2622 13.332 15.2202C13.79 15.1792 14.8096 14.6177 15.0176 14.0347C15.2256 13.4517 15.2261 12.9502 15.1641 12.8472C15.1021 12.7432 14.9355 12.6812 14.6855 12.5562C14.4365 12.4312 13.2095 11.8286 12.9805 11.7456C12.7515 11.6626 12.584 11.6206 12.418 11.8706C12.252 12.1206 11.7749 12.6812 11.6289 12.8472C11.4829 13.0142 11.3379 13.0366 11.0879 12.9116C10.8379 12.7856 10.0341 12.5214 9.08008 11.6714C8.33808 11.0104 7.83741 10.1948 7.69141 9.94482C7.54641 9.69582 7.67773 9.55906 7.80273 9.43506C7.91473 9.32306 8.05078 9.14356 8.17578 8.99756C8.29978 8.85156 8.34278 8.74754 8.42578 8.58154C8.50878 8.41554 8.4663 8.26904 8.4043 8.14404C8.3423 8.01904 7.85677 6.78648 7.63477 6.29248C7.44777 5.87748 7.25027 5.86784 7.07227 5.86084C6.92727 5.85484 6.7617 5.85498 6.5957 5.85498Z" fill="#1C1912"/>
</svg>
