<svg width="20" height="20" viewBox="0 0 20 20" fill="none" xmlns="http://www.w3.org/2000/svg">
<path d="M2.30664 0.334961C1.11035 0.334961 0.119141 1.32617 0.119141 2.52246V17.3975C0.119141 18.5938 1.11035 19.585 2.30664 19.585H17.1816C18.3779 19.585 19.3691 18.5938 19.3691 17.3975V2.52246C19.3691 1.32617 18.3779 0.334961 17.1816 0.334961H2.30664ZM2.30664 2.08496H17.1816C17.4312 2.08496 17.6191 2.27295 17.6191 2.52246V17.3975C17.6191 17.647 17.4312 17.835 17.1816 17.835H2.30664C2.05713 17.835 1.86914 17.647 1.86914 17.3975V2.52246C1.86914 2.27295 2.05713 2.08496 2.30664 2.08496ZM4.87695 3.58887C4.04639 3.58887 3.37305 4.26221 3.37305 5.09277C3.37305 5.92334 4.04639 6.59668 4.87695 6.59668C5.70752 6.59668 6.38086 5.92334 6.38086 5.09277C6.38086 4.26221 5.70752 3.58887 4.87695 3.58887ZM12.7793 7.58105C11.5249 7.58105 10.6909 8.26807 10.3457 8.9209H10.291V7.77246H7.83008V16.085H10.4004V11.9834C10.4004 10.8999 10.6157 9.85059 11.959 9.85059C13.2817 9.85059 13.2988 11.0742 13.2988 12.0381V16.085H15.8691V11.5186C15.8691 9.2832 15.394 7.58105 12.7793 7.58105ZM3.61914 7.77246V16.085H6.2168V7.77246H3.61914Z" fill="#1C1912"/>
</svg>
